<svg width="26" height="26" viewBox="0 0 18 26" fill="none" xmlns="http://www.w3.org/2000/svg">
<path d="M17.75 14.25V25.5H0.25V14.25C0.25 10.8 3.05 8 6.5 8V5.5H5.25V4.25H12.75V5.5H11.5V8C14.95 8 17.75 10.8 17.75 14.25ZM10.25 3L11.5 0.5H6.5L7.75 3H10.25ZM9 11.75C6.2375 11.75 4 13.9875 4 16.75C4 18 4.4875 19.125 5.25 19.9875V21.75H6.8125V19.875H8.225V21.75H9.7875V19.875H11.1875V21.75H12.75V19.9875C13.5497 19.0982 13.9946 17.946 14 16.75C14 13.9875 11.7625 11.75 9 11.75ZM7.125 16.75C6.4375 16.75 5.875 16.1875 5.875 15.5C5.875 14.8125 6.4375 14.25 7.125 14.25C7.8125 14.25 8.375 14.8125 8.375 15.5C8.375 16.1875 7.8125 16.75 7.125 16.75ZM8.0625 18.3125L9 16.75L9.9375 18.3125H8.0625ZM10.875 16.75C10.1875 16.75 9.625 16.1875 9.625 15.5C9.625 14.8125 10.1875 14.25 10.875 14.25C11.5625 14.25 12.125 14.8125 12.125 15.5C12.125 16.1875 11.5625 16.75 10.875 16.75Z" fill="white"/>
</svg>
